
<svg width="16" height="15" viewBox="0 0 512 512" xml:space="preserve" xmlns="http://www.w3.org/2000/svg">
  <path d="M444.4 241.1c.1.7.1 1.5.1 2.2 0 32.4.2 64.8-.1 97.2-.3 36.4-27.1 65.9-63.1 69.6-2.9.3-5.9.3-8.8.3h-32.2m-27.7 0h-.7m-27.5 0H139.5c-27.4 0-48.3-11.7-62.6-35.1-4.7-7.6-7.3-16-8.6-24.8-.1-.9-.5-1.8-.8-2.8v-50.1m0-30.5V238" fill="none" stroke="#B1B1B1" stroke-width="14" stroke-linecap="round" stroke-linejoin="round" stroke-miterlimit="10"/>
  <path d="M261.7 276.3v45.1c0 3.3-2.7 6-6 6s-6-2.7-6-6V110.6c0-3.3 2.7-6 6-6s6 2.7 6 6v106.1"/>
  <path d="m193 179-10.6 10.6c-2.3 2.3-6.2 2.3-8.5 0s-2.3-6.2 0-8.5l77.8-77.8c2.3-2.3 6.2-2.3 8.5 0s2.3 6.2 0 8.5l-25 25"/>
  <path d="m262.5 122.4-10.6-10.6c-2.3-2.3-2.3-6.2 0-8.5s6.2-2.3 8.5 0l77.8 77.8c2.3 2.3 2.3 6.2 0 8.5s-6.2 2.3-8.5 0l-25-25"/>
</svg>